<svg width="180" height="49" fill="none" xmlns="http://www.w3.org/2000/svg"><path d="M68.757 21.393h4.737v.358c0 2.852.006 5.703 0 8.555 0 1.41.422 2.647 1.385 3.693 1.13 1.23 2.55 1.682 4.185 1.548 2.52-.207 4.15-2.247 4.444-4.157.058-.36.087-.724.09-1.09.007-2.85.007-5.702 0-8.553v-.346h4.705v.377c0 5.794-.016 11.588.01 17.382.007 1.744-.29 3.398-1.18 4.903-1.645 2.783-4.059 4.455-7.31 4.848a12.11 12.11 0 01-3.532-.089V44.27c.11.02.215.035.316.059 1.573.359 3.104.261 4.504-.576 1.566-.938 2.402-2.352 2.485-4.184.02-.444 0-.89 0-1.383-.097.07-.173.11-.236.166a6.213 6.213 0 01-3.42 1.523c-2 .258-3.964.073-5.771-.858-3.056-1.573-4.897-4.04-5.342-7.476a8.903 8.903 0 01-.061-1.113 2560.72 2560.72 0 010-8.677l-.009-.358zM150.849 48.81v-4.53c.424.066.83.145 1.241.19 1.995.218 4.087-.458 5.309-2.387.485-.757.75-1.632.768-2.53.012-.441 0-.885 0-1.39-.206.172-.367.308-.528.435a6.318 6.318 0 01-3.127 1.276c-1.988.255-3.94.08-5.744-.84-3.082-1.569-4.941-4.047-5.379-7.51a8.807 8.807 0 01-.061-1.112 2474.46 2474.46 0 010-8.616v-.387h4.737v8.913c0 1.398.423 2.625 1.375 3.666 1.127 1.234 2.546 1.693 4.18 1.56 2.518-.203 4.156-2.215 4.463-4.173.057-.36.086-.725.087-1.09.005-2.83.005-5.661 0-8.493v-.386h4.705v.357c0 5.804-.015 11.61.009 17.414.007 1.765-.307 3.434-1.222 4.952-1.648 2.744-4.045 4.384-7.257 4.785-1.184.139-2.382.104-3.556-.104zM101.529 21.392h4.667v1.116c.122-.07.182-.102.244-.146 1.108-.873 2.364-1.326 3.772-1.48 5.204-.565 9.125 3.106 10.131 6.737 1.563 5.641-1.66 10.453-6.325 11.927-2.031.643-4.096.65-6.089-.213-.582-.25-1.107-.63-1.671-.958v5.867c0 .206-.038.323-.279.322-1.457-.008-2.912-.007-4.369-.009a.376.376 0 01-.079-.026l-.002-23.137zm14.487 8.978c-.032-.283-.054-.637-.113-.982a4.998 4.998 0 00-1.116-2.37c-1.2-1.462-2.746-2.038-4.58-1.694-2.733.511-4.4 3.348-3.911 6.046a5.078 5.078 0 002.034 3.288c1.434 1.05 3.023 1.24 4.612.526 2.019-.902 2.975-2.566 3.074-4.814zM41.758 21.392h4.668v1.116c.082-.045.161-.094.238-.147a6.787 6.787 0 013.41-1.45c5.688-.774 10.05 3.4 10.74 7.773.77 4.87-1.69 8.73-5.579 10.487-2.304 1.041-4.708 1.144-7.09.16-.584-.243-1.107-.629-1.67-.956v5.867c0 .207-.037.323-.278.322-1.457-.008-2.914-.007-4.37-.009a.37.37 0 01-.078-.026l.009-23.138zm9.534 3.87a7.275 7.275 0 00-.88.062c-1.991.372-3.759 2.207-3.96 4.711a5.172 5.172 0 00.807 3.21c1.451 2.32 4.352 3.053 6.589 1.604 1.71-1.108 2.437-2.745 2.378-4.772-.067-2.376-2.2-5.014-4.935-4.814zM21.146 21.398h4.694v1.115l.352-.265c1.31-.99 2.801-1.381 4.424-1.424 4.67-.113 8.312 3.19 9.366 6.88 1.458 5.106-1.447 10.437-6.532 11.89-2.122.609-4.245.582-6.27-.431-.458-.23-.873-.542-1.332-.832v6.191h-4.702V21.398zM35.569 30.2c.088-.925-.256-1.935-.9-2.852-1.411-2.018-3.587-2.583-5.64-1.787-3.153 1.218-4.108 5.154-2.271 7.853 1.479 2.171 4.272 2.832 6.415 1.467 1.619-1.028 2.445-2.53 2.396-4.68zM14.483 22.467v-1.062h4.745v18.001h-4.745V38.39c-.057.007-.095 0-.114.014-1.505 1.225-3.26 1.623-5.163 1.561-4.53-.15-8.433-3.623-9.076-8.093a9.367 9.367 0 01-.123-1.598c.068-2.164.708-4.14 2.108-5.825 1.4-1.684 3.141-2.893 5.32-3.388a9.823 9.823 0 012.605-.221c1.606.07 3.073.53 4.326 1.57a.702.702 0 00.117.058zm-.013 7.95a5.9 5.9 0 000-.82 5.11 5.11 0 00-2.088-3.478 4.084 4.084 0 00-2.583-.852c-.709.013-1.396.048-2.053.347-2.868 1.303-3.902 5.124-2.095 7.774 1.46 2.153 4.191 2.852 6.328 1.563 1.677-1.022 2.536-2.546 2.49-4.534zM141.331 39.411h-4.74v-1.036c-.07.02-.104.02-.122.036-1.467 1.193-3.178 1.59-5.044 1.558-4.539-.08-8.581-3.63-9.185-8.113a9.604 9.604 0 01-.123-1.9c.136-2.025.761-3.88 2.078-5.472 1.42-1.72 3.164-2.93 5.369-3.427a9.77 9.77 0 012.607-.218c1.626.077 3.112.542 4.414 1.665V21.4h4.753l-.007 18.011zm-4.744-8.99v-.396a3.016 3.016 0 00-.01-.425 5.138 5.138 0 00-2.089-3.478 4.068 4.068 0 00-2.581-.853c-.709.014-1.396.048-2.055.346-2.867 1.3-3.904 5.123-2.1 7.773 1.467 2.15 4.192 2.85 6.327 1.561 1.684-1.017 2.541-2.54 2.508-4.529zM62.179 15.969h4.706v23.453h-4.706V15.97z" fill="#fff"></path><path d="M172.677 15.197a7.131 7.131 0 014.711 1.567c1.419 1.127 2.22 2.628 2.5 4.391.323 2.035-.029 3.936-1.324 5.596-1.296 1.66-3.016 2.624-5.125 2.851-3.994.427-7.425-2.55-7.898-6.275-.456-3.603 1.763-7.238 5.623-8 .493-.097 1.007-.09 1.513-.13zm4.249 7.098c-.021-.974-.434-1.923-1.209-2.707-.936-.947-2.062-1.354-3.409-1.326-1.76.037-3.789 2.12-3.746 4.053.049 2.489 1.722 4.14 4.025 4.226 2.474.09 4.296-1.993 4.339-4.246zM167.761 4.579c3.056.01 5.134 2.148 5.12 5.254-.013 2.616-2.366 4.806-5.152 4.792-2.741-.013-4.948-2.313-4.933-5.134a4.895 4.895 0 011.457-3.485 4.93 4.93 0 013.508-1.427zm-2.811 5.027a2.83 2.83 0 00.846 2.04 2.858 2.858 0 002.054.825c1.523-.016 2.904-1.292 2.885-2.913-.021-1.697-1.578-2.864-3.001-2.848-1.453.014-2.799 1.414-2.789 2.896h.005zM176.491.01c1.819-.12 3.317 1.303 3.362 2.971.058 2.16-1.333 3.727-3.213 3.729-2.071 0-3.524-1.59-3.496-3.433.031-2.06 1.731-3.417 3.347-3.266zm-1.89 3.372c.009.501.217.979.578 1.328.361.35.846.542 1.35.536 1.03 0 1.93-.92 1.922-1.96-.007-.993-.946-1.883-1.981-1.882-1 .001-1.877.93-1.869 1.978z" fill="#F6BD2A"></path></svg>