<svg id="filled_outline" height="512" viewBox="0 0 512 512" width="512" xmlns="http://www.w3.org/2000/svg" data-name="filled outline"><path d="m224 152v-32l48-24 18.397 55.191z" fill="#ffb401"/><path d="m352 56-80 40 18.397 55.191 69.603-39.191v-32z" fill="#d1e4ff"/><path d="m104 296 72-120 184-96v32l-120 96v88z" fill="#ffc431"/><path d="m138.286 304 45.714-64h80v64z" fill="#91c0ff"/><path d="m128 304h136v48l-16 24h-120z" fill="#ffb401"/><path d="m418.113 96h45.887l24 96-30.408 20.272z" fill="#d1e4ff"/><path d="m440.482 161.88 37.636-9.409 9.882 39.529-30.408 20.272z" fill="#ffb401"/><path d="m360 80-16-32h24l64 48 40 144h-24l-88-128z" fill="#ffd873"/><path d="m448 240-32 48v24l-32 24v16h67.41247a36.58752 36.58752 0 0 0 36.58753-36.58753v-43.41247l-16-32z" fill="#ffc431"/><path d="m144 296h-120v104h192v-72z" fill="#ffc431"/><path d="m24 368h192v32h-192z" fill="#ffb401"/><rect fill="#415769" height="64" rx="32" width="256" x="64" y="400"/><path d="m495.15527 268.42236-15.65427-31.30836-6.99219-25.172 19.92871-13.28577a7.99858 7.99858 0 0 0 3.32324-8.59668l-24-96a7.9992 7.9992 0 0 0 -7.76076-6.05955h-29.33374l-61.86646-46.3999a8.00055 8.00055 0 0 0 -4.7998-1.6001h-24a7.99928 7.99928 0 0 0 -7.15527 11.57764l1.22216 2.44458-69.645 34.82251-48 24a7.99967 7.99967 0 0 0 -4.42189 7.15527v26.10718l-43.7002 22.80005a8.0007 8.0007 0 0 0 -3.16015 2.977l-69.66944 116.11577h-75.47021a8.00008 8.00008 0 0 0 -8 8v104a8.00008 8.00008 0 0 0 8 8h40.022a39.97806 39.97806 0 0 0 31.978 64h192a40 40 0 0 0 0-80h-64v-8h24a7.99943 7.99943 0 0 0 6.65625-3.5625l16-24a7.99983 7.99983 0 0 0 1.34375-4.4375v-112a8.00008 8.00008 0 0 0 -8-8h-16v-20.15479l110.28076-88.22436 80.05835 116.44861-28.99536 43.493a7.99983 7.99983 0 0 0 -1.34375 4.43754v20l-28.7998 21.6001a7.99927 7.99927 0 0 0 -3.2002 6.3999v16a8.00008 8.00008 0 0 0 8 8h67.41211a44.63816 44.63816 0 0 0 44.58789-44.5874v-43.4126a7.99583 7.99583 0 0 0 -.84473-3.57764zm-27.15327-72.7052-8.43408-30.36279 12.72876-3.18225 6.57446 26.29858zm.41407-49.0675-13.13184 3.283-12.75933-45.93266h15.229zm-103.08307-90.64966 59.6875 44.76562 36.45411 131.23438h-9.26661l-84.208-122.48535v-29.51465a7.97886 7.97886 0 0 0 -.85815-3.57092l.01342-.00672-10.21093-20.42236zm-16.00488 20.54456-64.21264 33.50232-3.33154-9.99451 63.43847-31.71924zm-117.32812 48.39978 35.32715-17.66358 3.4209 10.26221-38.74805 20.21631zm-89.69727 179.05566 65.69727 29.19922v26.80078h-176v-56zm21.395-8-7.489-3.32849 31.90846-44.67151h11.88281v48zm148.30227 136a24.0275 24.0275 0 0 1 -24 24h-192a24 24 0 0 1 0-48h192a24.0275 24.0275 0 0 1 24 24zm-280-40v-16h176v16zm211.71875-24h-19.71875v-40a8.00079 8.00079 0 0 0 -4.751-7.31055l-19.55125-8.68945h56.30225v37.57764zm12.28125-72h-40v-48h40zm96-187.84521-116.998 93.59814a8.00055 8.00055 0 0 0 -3.002 6.24707v24h-48a7.99923 7.99923 0 0 0 -6.50977 3.3501l-37.60693 52.6499h-21.75342l63.57032-105.9502 170.2998-88.85253zm128 207.25781a28.61984 28.61984 0 0 1 -28.58789 28.5874h-59.41211v-4l28.7998-21.6001a7.99927 7.99927 0 0 0 3.2002-6.3999v-21.57764l28.28125-42.42236h14.77466l12.94409 25.88867z"/><path d="m120 424h144v16h-144z"/><circle cx="96" cy="432" r="8"/><circle cx="288" cy="432" r="8"/></svg>