<?xml version="1.0"?>
<svg xmlns="http://www.w3.org/2000/svg" xmlns:xlink="http://www.w3.org/1999/xlink" xmlns:svgjs="http://svgjs.com/svgjs" version="1.1" width="512" height="512" x="0" y="0" viewBox="0 0 512 512" style="enable-background:new 0 0 512 512" xml:space="preserve" class=""><g transform="matrix(0.8999999999999999,0,0,0.9,75.30350327417258,25.599999999999994)"><path xmlns="http://www.w3.org/2000/svg" d="m308.96875 141.242188s10.269531-80.46875-8.828125-105.933594c-26.480469-35.308594-97.101563-35.308594-97.101563-35.308594s-70.621093 0-97.105468 35.308594c-19.097656 25.464844-8.828125 105.933594-8.828125 105.933594l103.644531 61.792968zm0 0" fill="#d1d1d1" data-original="#5d4c72" style="" class=""/><path xmlns="http://www.w3.org/2000/svg" d="m297.675781 147.382812s9.175781-83.96875-7.886719-110.539062c-23.65625-36.84375-86.75-36.84375-86.75-36.84375s-63.09375 0-86.753906 36.847656c-17.0625 26.570313-7.886718 110.535156-7.886718 110.535156l92.59375 64.480469zm0 0" fill="#5e5e5e" data-original="#3d324c" style="" class=""/><path xmlns="http://www.w3.org/2000/svg" d="m406.070312 411.453125c.015626 21.988281-8.714843 43.078125-24.261718 58.628906-15.546875 15.546875-36.640625 24.277344-58.628906 24.261719l-31.867188 17.65625h-176.550781l-31.867188-17.65625c-44.394531-.011719-80.898437-34.984375-82.816406-79.335938-1.914063-44.347656 31.441406-82.339843 75.664063-86.179687l70.976562-6.179687h112.640625l70.972656 6.179687c42.847657 3.746094 75.726563 39.613281 75.738281 82.625zm0 0" fill="#e9e9e9" data-original="#b49aca" style="" class=""/><path xmlns="http://www.w3.org/2000/svg" d="m257.238281 316.558594-54.199219 54.199218-54.203124-54.199218c4.410156-13.597656 7.371093-27.625 8.828124-41.84375l90.660157-.175782c1.539062 14.269532 4.527343 28.351563 8.914062 42.019532zm0 0" fill="#ada8b3" data-original="#7d6599" style="" class=""/><path xmlns="http://www.w3.org/2000/svg" d="m353.105469 450.207031v35.308594l-3.046875 4.367187c-8.652344 2.960938-17.734375 4.46875-26.878906 4.460938l-31.867188 17.65625h-176.550781l-31.867188-17.65625c-9.144531.007812-18.226562-1.5-26.878906-4.460938l-3.046875-4.367187v-35.308594c0-9.75 7.90625-17.65625 17.65625-17.65625h264.828125c9.75 0 17.652344 7.90625 17.652344 17.65625zm0 0" fill="#ada8b3" data-original="#7d6599" style="" class=""/><path xmlns="http://www.w3.org/2000/svg" d="m335.453125 414.898438v70.617187c0 14.628906-11.859375 26.484375-26.484375 26.484375h-211.863281c-14.625 0-26.480469-11.855469-26.480469-26.484375v-70.617187" fill="#e9e9e9" data-original="#b49aca" style="" class=""/><path xmlns="http://www.w3.org/2000/svg" d="m291.226562 147.683594c6.089844-4.851563 26.570313-18.710938 26.570313 19.421875 0 36.28125-23.128906 43.167969-31.957031 44.492187h-165.605469c-8.828125-1.324218-31.957031-8.210937-31.957031-44.492187 0-38.132813 20.480468-24.273438 26.574218-19.421875zm0 0" fill="#ada8b3" data-original="#7d6599" style="" class=""/><path xmlns="http://www.w3.org/2000/svg" d="m291.3125 141.242188c-4.78125-14.285157-7.746094-29.113282-8.828125-44.140626 0-17.652343-8.824219-44.136718-26.480469-52.964843s-26.484375 0-52.964844 0c-26.484374 0-35.3125-8.828125-52.96875 0-17.652343 8.828125-26.480468 35.3125-26.480468 52.964843-1.082032 15.027344-4.046875 29.855469-8.828125 44.140626 0 2.207031 0 4.324218.089843 6.441406-.296874 21.378906 1.953126 42.714844 6.707032 63.558594 2.320312 9.328124 5.542968 18.402343 9.621094 27.101562 12.535156 26.660156 34.339843 52.964844 71.859374 52.964844 37.339844 0 59.144532-26.480469 71.679688-52.964844 4.109375-8.695312 7.359375-17.773438 9.710938-27.101562 4.792968-20.835938 7.074218-42.175782 6.796874-63.558594.085938-2.117188.085938-4.234375.085938-6.441406zm0 0" fill="#e9e9e9" data-original="#b49aca" style="" class=""/><path xmlns="http://www.w3.org/2000/svg" d="m229.519531 512-17.65625-101.515625h-17.652343l-17.65625 101.515625zm0 0" fill="#ada8b3" data-original="#7d6599" style="" class=""/><path xmlns="http://www.w3.org/2000/svg" d="m225.988281 393.710938-1.941406 7.855468c-1.515625 6.144532-6.25 10.976563-12.359375 12.625-1.546875.460938-3.152344.699219-4.765625.707032h-7.769531c-1.613282-.007813-3.21875-.246094-4.765625-.707032-6.109375-1.648437-10.84375-6.480468-12.359375-12.625l-1.941406-7.855468 20.480468-25.425782 2.472656 2.472656.792969-.792968zm0 0" fill="#ada8b3" data-original="#7d6599" style="" class=""/><g xmlns="http://www.w3.org/2000/svg" fill="#5d4c72"><path d="m203.039062 370.757812-35.3125 35.3125s-44.136718-44.140624-52.964843-79.449218l17.65625-26.484375zm0 0" fill="#d1d1d1" data-original="#5d4c72" style="" class=""/><path d="m291.3125 326.621094c-8.828125 35.308594-52.964844 79.449218-52.964844 79.449218l-35.308594-35.3125 70.621094-70.621093zm0 0" fill="#d1d1d1" data-original="#5d4c72" style="" class=""/></g></g></svg>
